<svg xmlns="http://www.w3.org/2000/svg" version="1.1" width="600px" height="600px" viewBox="0 0 200 200" style="overflow:hidden!important;"><defs id="SvgjsDefs2848"></defs><g id="svga-group-wrapper"><g id="svga-group-backs-single"><path id="SvgjsPath3085" d="M0 0h200v200H0V0z" fill="#ecf0f1" stroke-width="none" opacity="1"></path></g><g id="svga-group-humanwrap-move" transform="matrix(1,0,0,1,0,-6)"><g id="svga-group-humanwrap" transform="matrix(1,0,0,1,0,0)"><g id="svga-group-hair-back-move" transform="matrix(1,0,0,1,0,0)"><g id="svga-group-hair-back" transform="matrix(1,0,0,1,0,0)"><path id="SvgjsPath5772" d="M134.2 50.7s5.7 1.1 10.5 12 2.8 23.4 2.2 32.1-2 36-10.9 49.8-13.1 14.6-23.4 18.4c-10.3 3.7-36.5 2.6-47.6-7.4-11.1-10.1-6.5-26.9-3.7-33 2.8-6.2 72.9-71.9 72.9-71.9" fill="#ddcfc1" stroke-width="none" opacity="1" stroke="none"></path><path id="SvgjsPath5773" d="M71.2 121.7s-2.8 7.1-3.4 12c-.6 4.9 2.6 9.5 4.5 12.1 2.1 2.8 6 7.6 6.1 17.2.1 6 41.6-5.5 41.6-5.5 3.7-2.9 11.1-9.6 15.6-20.9 3.8-9.5 3.8-17.8 3.5-22.4-17.2 6.2-34.5 12.5-51.7 18.7l-2.8-4.3-13.4-6.9z" fill="#d6c3b0" stroke-width="none" opacity="1" stroke="none"></path></g></g><g id="svga-group-humanbody-back"><path id="SvgjsPath3152" d="m168.5 219.5-1.7-21.5s.7-9-8.8-15.3-23.4-10.1-29.5-14.2c-6.1-4.1-9.2-4.5-9-16.9s.9-40.3.9-40.3H79.6s.7 27.9.9 40.3c.2 12.4-2.9 12.8-9 16.9-6.1 4.1-20 7.9-29.5 14.2S33.2 198 33.2 198l-1.6 21.5h136.9z" fill="#f3d4cf" stroke-width="none" opacity="1" stroke="none"></path></g><g id="svga-group-chinshadow-single"><path id="SvgjsPath3601" d="M80.4 155.4c5.9 5.8 12.6 9.3 19.6 9.3s13.7-3.5 19.6-9.3c-.1-1.1-.1-2.4-.1-3.8.2-12.4.9-40.3.9-40.3H79.6s.7 27.9.9 40.3c0 1.4 0 2.7-.1 3.8z" fill="#d4958a" stroke-width="none" opacity="0.65" stroke="none"></path></g><g id="svga-group-humanbody-front"><path id="SvgjsPath3153" d="M73.8 175.9c5.1 2.9 11.8 5.2 17.6 5.7.4 0 .4-.6.1-.7-2.8-1.1-5.9-1.7-8.8-2.6-2.9-.9-5.8-2-8.8-2.7-.1-.1-.3.2-.1.3zm35.2 6.2c5.3-.6 11.3-3 15.9-5.8.3-.2.1-.6-.2-.5-2.6.9-5.2 2-7.8 2.9-2.6.9-5.4 1.5-8 2.5-.5.1-.5.9.1.9z" fill="#d4958a" stroke-width="none" opacity="1" stroke="none"></path><path id="SvgjsPath3154" d="m168.4 219.4-2.1-21.4c0-2.2-.5-4.5-1.5-6.6-.9-2.1-2.3-3.9-3.9-5.5s-3.5-2.8-5.5-4c-2-1.2-4.1-2.2-6.2-3.1-4.2-1.9-8.6-3.6-12.9-5.4-2.2-.9-4.3-1.9-6.4-3-1.1-.6-2.1-1.2-3-1.9-1-.6-2-1.2-3-1.9s-2-1.5-2.8-2.6c-.8-1-1.3-2.2-1.7-3.4-.7-2.4-.8-4.8-.8-7.2 0-4.7.2-9.4.3-14.1.2-9.4.6-18.7.9-28l.6.6-20.4-.2-20.4-.1.3-.3.7 28c.1 4.7.3 9.3.4 14 0 2.4-.1 4.7-.8 7.1-.3 1.2-.9 2.3-1.6 3.3-.8 1-1.7 1.8-2.7 2.5s-2 1.3-2.9 2c-.9.6-1.9 1.3-3 1.9-2.1 1.2-4.2 2.1-6.4 3.1-4.3 1.9-8.6 3.6-12.8 5.6-2.1 1-4.2 2.1-6.1 3.2-2 1.2-3.8 2.4-5.4 4-1.6 1.6-2.9 3.4-3.8 5.4-.4 1-.8 2.1-1 3.1-.2 1.1-.4 2.2-.3 3.2v.2l-1.5 21.5-1-1.1 34 .1c11.3 0 22.7.1 34.1.2l34.2.3 34.4.5zm.2.2-34 .4-34.2.3c-11.4.1-22.9.2-34.4.2l-34.4.1h-1.1l.1-1.1 1.7-21.5v.1c-.1-5.1 2.2-9.8 5.7-13.3 1.7-1.7 3.8-3.1 5.8-4.3 2-1.2 4.2-2.2 6.3-3.2 4.3-2 8.7-3.7 13-5.4 2.1-.9 4.3-1.8 6.3-2.9 1-.5 1.9-1.1 3-1.8 1-.6 2-1.2 2.9-1.9.9-.6 1.8-1.4 2.4-2.2.7-.9 1.2-1.9 1.5-2.9.6-2.1.8-4.5.8-6.8 0-4.6-.1-9.3-.2-14l-.6-28v-.3h.3l20.4-.1 20.4-.2h.6v.6c-.1 9.3-.2 18.7-.4 28-.1 4.7-.2 9.4-.2 14 .1 2.3.2 4.6.8 6.7.3 1.1.8 2 1.4 2.9.6.8 1.4 1.6 2.4 2.2.9.6 1.9 1.3 2.9 1.9 1 .7 1.9 1.3 2.9 1.8 2 1.1 4.1 2.1 6.3 3 4.3 1.8 8.6 3.6 12.9 5.6 2.1 1 4.2 2.1 6.2 3.3 2 1.2 4 2.6 5.7 4.3 3.4 3.4 5.6 8.1 5.4 13v-.1l1.4 21.6zm-112.8-.4 1.9-13.8.1 13.8h-2zm88.6 0-1.9-13.8-.1 13.8h2z" fill="#c5796d" stroke-width="none" opacity="1" stroke="none"></path></g><g id="svga-group-clothes-single"><path id="SvgjsPath6094" d="M172 220s-1.3-17.2-2.6-22.7-4-12.6-5.1-13.4c-1.1-.9-1.9-.4-1.9-.4s-1.1-.9-4.5-3.4-18.5-7.2-20.4-8.5c-1.9-1.3-10.2-4.7-10.2-4.7l.2-2.3s-2.6-1.9-3.4-3.4c-.8-1.5-1.3-3.6-1.3-3.6l-.4-2.5s-.6 2-1 3.3-1 6.5-1.5 8.8c-.3 1.5-2.2 4.6-3.5 6.1-1.5 1.6-3.8 3-6.1 4.2-3.4 1.8-4.8 2.4-5.4 3.1-.6.7-.9 2.9-1.9 6l-1.1 2.6s-2.9-3.9-4.5-6.4c-1.6-2.5-3.1-3.4-4-3.4s-5.7.1-6.1-.2-1.8-1.7-2.4-2.8c-.7-1.1-3.4-8.1-4.1-9.5-.7-1.4-2-7.2-2.4-8.5-.3-1.3-.6-3.1-.6-3.1l-.4 1.1s-.8 3.4-1.7 4.9c-.8 1.5-3.4 3.4-3.4 3.4l.2 2.3s-8.3 3.4-10.2 4.7c-1.9 1.3-17 6-20.4 8.5s-4.5 3.4-4.5 3.4-.8-.4-1.9.4c-1.1.9-3.8 7.9-5.1 13.4S28 220 28 220" fill="#09aac5" stroke-width="none" opacity="1"></path><path id="SvgjsPath6095" d="M163.9 185.7c-.1-.4-.8-.2-.7.2 2.9 9.4 4.1 19.1 5.7 28.8 0 .2.4.1.4-.1.6-10-1.9-19.6-5.4-28.9zm-3.1-1.1c-2.3 4.8-3.6 10.2-3.9 15.5 0 .2.3.2.3 0 .8-5.4 2.1-10.3 3.9-15.5 0 0-.2-.1-.3 0zm-59.6 12.5c-.2-.1-.4-.2-.2-.4.3-.3-.1-.7-.4-.6-1 .4-.1 2.1.7 1.4.1-.1 0-.3-.1-.4zm-.4 16.4c0-.2-.2-.3-.4-.1-.6.5 0 1.6.7 1.3.1 0 .1-.2 0-.2-.1-.4-.3-.6-.3-1zm6.9-31.2c-.3 0-.7-.1-.7-.5 0-.2-.4-.3-.4-.1-.1.4 0 .7.3.9.3.2.7.2.9 0 .2-.1.1-.3-.1-.3zm-22.9-3.5c-2.3 1.4-4.4 3.4-6.4 5.2-1.9 1.9-4.1 3.8-5.4 6.2-.1.2.1.3.3.2 2.1-1.8 3.7-4 5.7-5.9 2-1.9 4.2-3.5 6.2-5.4.1-.1-.2-.4-.4-.3zm-45.5 5.6c1 7.4 3.8 14.6 5 22.1 0 .1.1.1.1 0-.4-7.2-1-15.8-4.7-22.1-.1-.3-.5-.2-.4 0zm-2.7.6c-4 7.9-6.2 17.4-6.2 26.2 0 .2.4.3.4.1 1.3-9.1 3.3-17.3 6.3-26 .2-.4-.3-.6-.5-.3zm93.5 4.3c-2.5-8.2-4.1-15.7-4.3-24.3 0-.3-.4-.3-.5 0-.7 7.7.5 16.3 3.7 23.5-2.5-3.1-5.3-6.1-8.1-8.8-2-1.9-4.2-4.1-7.2-2.9-.3.1-.2.6.2.6 3.5-.8 6.7 4.4 8.9 6.5 2.2 2.1 4.3 4.4 6.6 6.3.3.2.8-.1.6-.4.1-.2.2-.3.1-.5zm-12.8-14.1c3.4-3.2 5.9-8.9 4.8-13.7-.1-.2-.4-.2-.4.1-.3 2.4-.3 4.8-1.2 7.1-.8 2.3-2.1 4.4-3.5 6.3-.1.1.2.3.3.2zm12.4-3.9c8.6 4.8 18.3 8.1 27.5 11.5.3.1.5-.4.2-.5-8.4-4.8-17.8-9.7-27.4-11.9-.4-.1-.8.6-.3.9z" fill="#1fbad4" stroke-width="none" opacity="1"></path><path id="SvgjsPath6096" d="M158.3 201.6c-.2 2.9-.3 5.7-.3 8.6v4.3c.1 1.4.1 2.9.2 4.3.1-1.4.2-2.9.3-4.3l.3-4.3.6-8.5c.2-2.8.5-5.6 1-8.4.3-1.4.6-2.8 1-4.1.4-1.4.8-2.7 1.4-4.1-1.4 2.5-2.4 5.2-3.1 8-.9 2.8-1.2 5.6-1.4 8.5zm-51.2-20.3c.6 0 1.2.5 1.2 1.2s-.5 1.2-1.2 1.2-1.2-.5-1.2-1.2.6-1.2 1.2-1.2zm-6.2 14.4c.6 0 1.2.5 1.2 1.2s-.5 1.2-1.2 1.2-1.2-.5-1.2-1.2.6-1.2 1.2-1.2zm-.1 17.1c.6 0 1.2.5 1.2 1.2s-.5 1.2-1.2 1.2-1.2-.5-1.2-1.2.6-1.2 1.2-1.2zm15.7-31.9s.1-.1 0 0c.1-.1 0 0 0 0zm55 29.3c-.2-3.3-.5-6.6-.9-9.8-.4-3.3-1.3-6.5-2.3-9.7-.5-1.6-1.1-3.1-1.8-4.7-.4-.8-.7-1.5-1.2-2.3-.4-.5-.8-.8-1.3-1-.3-.1-.6-.2-.9-.2h-.4l-3.6-2.8c-.6-.5-1.4-1-2.1-1.4-.8-.4-1.5-.8-2.2-1.1-3-1.4-6.1-2.5-9.1-3.6l-4.6-1.7c-.8-.3-1.5-.6-2.2-.9-.2-.1-.4-.2-.5-.2-.1-.1-.3-.1-.5-.3-.4-.2-.8-.4-1.1-.6-2.8-1.4-5.7-2.5-8.6-3.7l.1-1.9c0-.2-.1-.4-.2-.5-.7-.5-1.4-1.1-2.1-1.7-.3-.3-.6-.6-.9-1-.3-.3-.5-.7-.7-1.1-.4-.8-.7-1.7-.9-2.6-.2-.9-.3-1.8-.5-2.7 0-.1-.1-.2-.2-.3-1-.8-2.2-.9-2.2-.9-.2 1.8.3 4.7.4 5.4 0 .2-.1.4-.1.6l-.7 4.9c-.1.8-.2 1.6-.4 2.4-.2.7-.5 1.5-.9 2.2-.8 1.4-1.6 2.8-2.7 4-2.3 2.3-5.3 3.6-8.2 5.1-.7.4-1.5.7-2.2 1.2-.4.2-.8.5-1 .9-.3.4-.4.8-.5 1.2-.5 1.6-.9 3.2-1.4 4.7l-.7 1.7-2.6-3.9c-1.1-1.5-1.9-3.3-3.6-4.6-.4-.3-.9-.6-1.5-.8-.3-.1-.7-.1-.9-.1h-.7l-2.8-.1c-.5 0-.9 0-1.4-.1-.2 0-.4 0-.6-.1-.1 0-.1-.1-.2-.2-.6-.6-1.2-1.3-1.7-2.1-.4-.6-.8-1.6-1.1-2.4l-1.1-2.6-2.1-5.2c-.6-1.7-1-3.6-1.5-5.4l-.5-1.6-.1-.3c.1-.2.2-.6.3-1.1.1-1 .2-4 .2-4s-2 .4-2.5.8c-.2.1-.5.3-.6.6l-.4 1.1v.1c-.2.8-.4 1.6-.7 2.3-.2.8-.5 1.5-.9 2.2-.3.6-.8 1.1-1.4 1.7-.6.5-1.2 1.1-1.8 1.5-.3.2-.4.6-.4.9l.2 1.6c-2.8 1.2-5.5 2.3-8.3 3.7-.4.2-.7.4-1.1.6l-.3.2-.2.1c-.1.1-.3.1-.5.2-.7.3-1.5.6-2.2.9l-4.6 1.7c-3.1 1.1-6.1 2.3-9.1 3.6-.8.3-1.5.7-2.2 1.1-.7.4-1.6.9-2.2 1.4l-3.5 2.8h-.4c-.3 0-.6.1-.9.2-.5.2-1 .5-1.3 1-.6.8-.9 1.6-1.2 2.3-.7 1.5-1.3 3.1-1.8 4.7-1 3.1-1.9 6.4-2.3 9.7-.4 3.3-.7 6.6-.9 9.8-.2 3.3-.4 6.6-.6 9.8h.2c.3-3.3.7-6.5 1.1-9.8.4-3.2.8-6.5 1.3-9.7.5-3.2 1.5-6.3 2.6-9.4l1.8-4.5c.3-.7.7-1.5 1.1-2 .1-.2.4-.4.6-.4.1 0 .2-.1.3-.1h.2l.6-.1c.4 1.2.8 2.4 1.2 3.7.4 1.5.8 2.9 1.1 4.4.7 3 1.2 6 1.6 9 .4 3 .8 6.1 1.1 9.1.2 1.5.3 3.1.5 4.6.2 1.5.3 3.1.4 4.6.2-3.1.1-6.2-.1-9.2-.2-3.1-.5-6.1-.9-9.2-.4-3.1-1-6.1-1.8-9.1-.8-2.7-1.7-5.4-3-8h.2l3.9-2.9c.7-.5 1.2-.9 1.9-1.2.7-.4 1.4-.7 2.2-1 3-1.2 6-2.3 9.1-3.5l4.6-1.7c.8-.3 1.5-.6 2.3-.9l.6-.3.3-.2.2-.1c.3-.2.7-.4 1-.5 2.7-1.3 5.6-2.5 8.4-3.7.1 1.4.2 2.8.1 4.1 0 1.3-.1 2.5-.2 3.8-.2 1.2-.4 2.4-.7 3.7-.5 2.5-.9 5.1-1.4 7.6-.5 2.5-.8 5.1-1.3 7.6 0 .3 0 .6.2.8.3.4 1 .4 1.4.1 1.5-1.3 2.9-2.7 4.3-4.1s2.8-2.8 4.1-4.2c.7-.7 1.3-1.5 1.9-2.3l.9-1.2c.2-.4.5-.8.8-1.1l.5-.5c2.3 1.4 4.8 2.3 7.4 2.9.9.2 1.9.4 2.8.5.6 1.8 1.4 3.4 2.3 5l.6 1.2c.2.4.3.9.6 1.3.3.7.7 1.4 1.1 2.2-.1.3-.2.5-.3.9-.2 1.4-.1 2.8-.1 4.1l.2 4c.1 1.3 0 2.6 0 4 0 1.3 0 2.7.1 4l.1 4c.1 1.3.1 2.7.2 4 .1-1.3.2-2.7.3-4l.2-4c.1-2.7.2-5.3.1-8.1-.1-1.4-.2-2.7-.2-4-.1-1.3-.2-2.7-.1-3.9 0-.5.4-1.2.7-1.8l.9-1.8c.5-1.1 1.1-2.1 1.5-3.1.3.1.6 0 .7-.3l1-2.6c.1-.3.1-.5.2-.8 1.1.1 2.1 0 3.2-.2.9-.1 1.8-.4 2.7-.6-1.4 2.6-2.8 5.2-4.1 7.8-.7 1.4-1.6 2.6-2.4 4-.4.7-.8 1.5-.8 2.4 0 .8 0 1.6.1 2.4.2 3.1.5 6.2.7 9.3.1 1.5.1 3.1.1 4.6.1 1.6.1 3.1.2 4.7.2-3.1.4-6.2.4-9.4-.1-3.1-.3-6.2-.5-9.3-.1-.8-.1-1.6-.1-2.3 0-.7.3-1.3.6-2 .7-1.3 1.6-2.7 2.2-4.1 1.2-2.7 2.4-5.4 3.5-8.2.3-.1.6-.2.8-.2 1.2-.4 2.3-.9 3.3-1.6 1-.6 1.9-1.4 2.8-2.2-1.1.5-2 1.1-3.1 1.5-1.1.5-2.2 1-3.3 1.4-2.1.8-4.2 1.3-6.4 1.8.3-1.3.7-2.6 1-3.8.1-.4.2-.8.4-1 .2-.3.5-.5.8-.7l2.1-1.2c.7-.3 1.3-.7 2-1 .9-.1 1.8-.1 2.7.1.6.1 1.1.3 1.5.7.5.4.9.8 1.3 1.2l1 1c1.3 1.4 2.5 3 3.8 4.5 1.7 2 3.7 3.4 5.7 4.9 2 1.5 4.1 2.8 6.2 4.1.2.1.5.2.7.1.5-.1.9-.6.7-1.2-.5-2.2-1.1-4.4-1.6-6.6s-1.1-4.4-1.7-6.6c-.6-2.2-1.2-4.4-1.7-6.6-.4-1.9-.8-3.8-1-5.7 2.7 1.2 5.5 2.4 8 3.8.4.2.7.4 1 .6.1.1.3.2.6.3s.4.2.6.3c.8.4 1.5.6 2.3.9l4.6 1.7 4.6 1.7c1.5.6 3 1.1 4.5 1.8.7.3 1.5.6 2.1 1 .7.4 1.3.7 1.9 1.2l3.9 2.9.9.1h.2c.1 0 .2 0 .4.1s.5.3.6.4c.4.5.8 1.3 1.1 2 .7 1.5 1.2 3 1.8 4.5 1.1 3.1 2.1 6.2 2.6 9.4s.9 6.5 1.3 9.7l1.1 9.8h.2c.2-3.2 0-6.5-.3-9.7zm-89.2-28.1c-.4.4-.7.7-1 1.1-.3.4-.6.7-.9 1.1-.7.7-1.4 1.4-2.1 2-1.4 1.4-2.9 2.6-4.3 3.9l-2.3 2.1c.3-1.6.6-3.2.8-4.9.4-2.5.8-5.1 1.2-7.6.2-1.2.4-2.6.5-3.9.1-1.3.1-2.6 0-3.9-.1-1.6-.3-3.1-.6-4.6.2-.2.3-.5.2-.8l-.2-1.8c.5-.4 1-.9 1.5-1.3.6-.6 1.3-1.3 1.8-2.2.4-.8.7-1.6.9-2.3l.5 1.8c.5 1.8.9 3.7 1.6 5.5l2.2 5.3 1.1 2.6.6 1.3.3.7c.1.2.3.5.4.7.6.9 1.2 1.6 2 2.3l.1.1c-1.5.8-3 1.6-4.3 2.8zm8.8 2c-2.5-.6-5-1.2-7.6-1.9.9-1 2.1-1.9 3.2-2.6l.1.1c.1.1.1.1.3.2.2.1.4.1.4.1.3.1.6.1.8.1H93.7c.3.1.7.3 1 .5 1.3 1 2.3 2.7 3.4 4.2l.5.6c-1.2-.2-2.4-.3-3.7-.5-1.2-.3-2.5-.5-3.8-.8zm8.7 8.3c-.3.6-.7 1.1-1 1.7-.2.3-.3.6-.5.8-.1-.7-.3-1.5-.5-2.2-.1-.5-.3-.9-.4-1.4-.2-.5-.4-.9-.6-1.4-.9-1.6-1.9-3.2-3.1-4.6.4 0 .8.1 1.2.1 1.3.1 2.6 0 3.8-.2l2.8 3.9c0 .1.1.1.2.1l-1.9 3.2zm28.3-15.3.7 3.3c.5 2.2 1 4.4 1.5 6.7.4 1.4.7 2.9 1 4.3-1.4-.9-2.8-1.8-4.1-2.7l-3-2.1c-1-.7-1.9-1.5-2.7-2.3-1.7-1.8-3.4-3.6-5.3-5.2-.5-.4-1-.8-1.5-1.1-.6-.4-1.2-.6-1.9-.6-.8-.1-1.5 0-2.2.2 2.1-1.1 4.2-2.3 5.9-4 1.2-1.2 2-2.7 2.8-4.1.4-.7.8-1.5 1-2.3.2-.8.3-1.6.5-2.4l.8-4.9c.1-.4.1-.8.2-1.2l.3-1.2.2-.6c.1.3.1.6.2 1 .2.9.5 1.9.9 2.8.2.4.4.9.7 1.3.3.4.6.8 1 1.1.6.6 1.2 1.2 1.9 1.7l-.2 2c0 .2.1.5.3.6 0 2.1.2 4.2.5 6.3.1 1.2.3 2.3.5 3.4z" fill="#008fa6" stroke-width="none" opacity="1"></path></g><g id="svga-group-head" transform="matrix(1,0,0,1,0,0)"><g id="svga-group-ears-left-move" transform="matrix(1,0,0,1,0,0)"><g id="svga-group-ears-left" transform="matrix(1,0,0,1,0,0)"><path id="SvgjsPath4369" d="M64 93.7s-2.3-2.2-5-3.3-5.7.7-6.6 3.4 1.2 14 4.7 18.1 5.8 4.4 8.1 2.3c2.3-2 6.4-9.9-1.2-20.5z" fill="#f3d4cf" stroke-width="none" opacity="1"></path><path id="SvgjsPath4370" d="M65.2 95.3c.4.6.7 1.2 1.1 1.8.4.6.7 1.3 1 1.9.3.7.6 1.3.8 2 .2.7.5 1.4.6 2.2.1.4.1.8.2 1.1l.1 1.2c0 1.6-.2 3.1-.6 4.6-.5 1.5-1.1 2.8-2.1 3.9-.2.3-.5.5-.7.8-.3.2-.5.4-.8.6-.6.4-1.2.7-1.9.7-.7.1-1.4 0-2-.3s-1.2-.7-1.7-1.1-1-.9-1.5-1.5c-.5-.5-.9-1.1-1.3-1.7-1.5-2.5-2.4-5.3-3.2-8.1-.4-1.4-.7-2.8-1-4.3s-.5-2.9-.4-4.5c0-.4.1-.8.2-1.3.1-.2.1-.4.2-.6l.3-.5c.4-.7.9-1.2 1.4-1.7 1.1-.9 2.4-1.3 3.7-1.1.6.1 1.3.3 1.8.6.6.3 1.1.6 1.7 1 1.1.7 2.1 1.5 3.1 2.4l1 1.9zm-4.4-3.8c-.6-.3-1.1-.5-1.7-.7-.6-.2-1.1-.3-1.7-.3-1.1.1-2.2.5-3.1 1.3-.4.4-.8.8-1.1 1.4-.1.3-.3.5-.4.8-.1.3-.2.5-.2.9-.2 1.3-.1 2.8.1 4.2.2 1.4.4 2.9.7 4.3.7 2.8 1.7 5.6 3.3 7.7.8 1 1.8 1.9 2.7 2.7 1 .7 2.1 1.2 3.1 1 .5-.1 1-.3 1.5-.6s.9-.7 1.3-1.2c.7-1 1.4-2.1 1.7-3.4.4-1.3.6-2.6.7-4 0-1.4-.1-2.8-.4-4.2-.6-2.8-1.8-5.4-3.4-7.6-.9-1-2-1.7-3.1-2.3z" fill="#e4b3ab" stroke-width="none" opacity="1"></path><path id="SvgjsPath4371" d="M55.9 93.3c3 .5 5 5.7 5.6 9.2.1.1.1.2.2.3.3.5-.4 1.1-.7.6-.4-.7-1-1.5-1.7-1.8-1.3-.5-2 1-1.7 2.5.4 1.7 1.5 2.8 2.5 4.1.1.1 0 .3-.1.2-1.6-1-4-4.5-2.9-6.7.8-1.6 2.1-1.3 3.2-.4-.7-2-1.3-4-2.8-5.5-.5-.5-1.4-1.3-2.1-1.2-1.2.2-1.2 2-1.3 3.1-.1 1.5.1 3.1.3 4.7 0 .2-.2.2-.2.1-.6-2.4-1.8-9.8 1.7-9.2z" fill="#d4958a" stroke-width="none" opacity="1"></path></g></g><g id="svga-group-ears-right-move" transform="matrix(1,0,0,1,0,0)"><g id="svga-group-ears-right" transform="matrix(1,0,0,1,0,0)"><path id="SvgjsPath4372" d="M136 93.7s2.3-2.2 5-3.3 5.7.7 6.6 3.4-1.2 14-4.7 18.1-5.8 4.4-8.1 2.3c-2.3-2-6.4-9.9 1.2-20.5z" fill="#f3d4cf" stroke-width="none" opacity="1"></path><path id="SvgjsPath4373" d="M136 93.6c1-.9 2-1.7 3.1-2.4.5-.4 1.1-.7 1.7-1 .6-.3 1.2-.5 1.8-.6 1.3-.1 2.6.2 3.7 1.1.5.4 1 1 1.4 1.7l.3.5c.1.2.1.4.2.6.1.4.2.9.2 1.3.1 1.6-.2 3.1-.4 4.5-.3 1.5-.6 2.9-1 4.3-.8 2.8-1.7 5.6-3.2 8.1-.4.6-.8 1.1-1.3 1.7-.4.5-.9 1-1.5 1.5-.5.4-1.1.8-1.7 1.1-.6.3-1.3.4-2 .3s-1.3-.4-1.9-.7c-.3-.2-.6-.4-.8-.6-.3-.2-.5-.5-.7-.8-.9-1.1-1.6-2.5-2.1-3.9-.4-1.5-.7-3-.6-4.6l.1-1.2c0-.4.1-.8.2-1.1.1-.8.4-1.5.6-2.2.3-.7.5-1.4.8-2s.6-1.3 1-1.9.7-1.2 1.1-1.8l1-1.9zm0 .1c-1.6 2.2-2.8 4.9-3.4 7.6-.3 1.4-.4 2.8-.4 4.2 0 1.4.2 2.7.7 4 .4 1.3 1 2.4 1.7 3.4.4.5.8.9 1.3 1.2.5.3.9.6 1.5.6 1 .2 2.1-.3 3.1-1 1-.8 1.9-1.7 2.7-2.7 1.6-2.1 2.6-4.9 3.3-7.7.4-1.4.6-2.8.7-4.3.2-1.4.2-2.9.1-4.2 0-.3-.1-.6-.2-.9-.1-.3-.2-.6-.4-.8-.3-.5-.7-1-1.1-1.4-.9-.7-1.9-1.2-3.1-1.3-.6 0-1.1.1-1.7.3-.6.2-1.1.4-1.7.7-1 .7-2.1 1.4-3.1 2.3z" fill="#e4b3ab" stroke-width="none" opacity="1"></path><path id="SvgjsPath4374" d="M144.1 93.3c-3 .5-5 5.7-5.6 9.2-.1.1-.1.2-.2.3-.3.5.4 1.1.7.6.4-.7 1-1.5 1.7-1.8 1.3-.5 2 1 1.7 2.5-.4 1.7-1.5 2.8-2.5 4.1-.1.1 0 .3.1.2 1.6-1 4-4.5 2.9-6.7-.8-1.6-2.1-1.3-3.2-.4.7-2 1.3-4 2.8-5.5.5-.5 1.4-1.3 2.1-1.2 1.2.2 1.2 2 1.3 3.1.1 1.5-.1 3.1-.3 4.7 0 .2.2.2.2.1.6-2.4 1.8-9.8-1.7-9.2z" fill="#d4958a" stroke-width="none" opacity="1"></path></g></g><g id="svga-group-faceshape-wrap" transform="matrix(1,0,0,1,0,0)"><g id="svga-group-faceshape-single"><path id="SvgjsPath3591" d="M141 88.4c0 30.3-18.9 65.2-41 65.2s-41-34.9-41-65.2 18.9-47 41-47 41 16.6 41 47z" fill="#f3d4cf" stroke-width="none" opacity="1" stroke="none"></path><path id="SvgjsPath3592" d="M100 41.3c-22.1 0-41.1 16.7-41.1 47s19 65.5 41.1 65.5 41.1-35.2 41.1-65.5-19-47-41.1-47zm28.2 13.6.8.8c.3.3.5.6.8.9.3.3.5.6.8.9l.7.9c.2.3.5.6.7.9l.7 1 .3.5.3.5c.4.7.9 1.3 1.2 2l.6 1c.2.3.4.7.5 1l.5 1.1.5 1.1c.2.4.3.7.5 1.1l.4 1.1c2.3 5.9 3.2 12.4 3.3 18.7 0 6.4-.9 12.8-2.6 18.9-.8 3.1-1.9 6.1-3.1 9-1.2 2.9-2.5 5.8-4 8.6s-3.1 5.5-4.8 8.1c-.9 1.3-1.8 2.6-2.7 3.8-.9 1.2-1.9 2.4-3 3.6-2 2.3-4.3 4.4-6.7 6.3-2.4 1.8-5 3.3-7.8 4.3-1.4.5-2.8.9-4.3 1-1.5.2-2.9.2-4.4.1-3-.2-5.9-1.2-8.6-2.6-2.7-1.4-5.3-3.3-7.6-5.4-2.3-2.1-4.4-4.5-6.3-7.1s-3.6-5.3-5-8.1c-1.5-2.8-2.8-5.7-3.9-8.7-.6-1.5-1.1-3-1.6-4.5s-.9-3-1.3-4.6c-.8-3.1-1.4-6.2-1.8-9.3-.4-3.1-.7-6.3-.8-9.4 0-1.6 0-3.1.1-4.7 0-.8.1-1.6.1-2.3l.2-2.3c.3-3.1.9-6.2 1.7-9.1.8-3 1.8-5.9 3.2-8.6.2-.4.3-.7.5-1l.5-1c.4-.7.8-1.3 1.2-2 .4-.6.8-1.3 1.3-1.9l.7-.9.3-.5.4-.4c1.9-2.4 4.1-4.5 6.5-6.3s5-3.3 7.8-4.5 5.7-2 8.6-2.5c.7-.2 1.5-.2 2.2-.3.4-.1.8-.1 1.1-.1l1.1-.1c.8 0 1.5-.1 2.3-.1H102.6l1.1.1c.4 0 .8.1 1.1.1.4 0 .8.1 1.1.1l1.1.2.6.1.6.1 1.1.2c.4.1.7.2 1.1.3s.7.2 1.1.3c1.4.4 2.9.9 4.3 1.5s2.8 1.2 4.1 2c2.7 1.5 5.2 3.3 7.4 5.4l.4.4.5.3z" fill="#c5796d" stroke-width="none" opacity="1" stroke="none"></path></g></g><g id="svga-group-mouth-single-move" transform="matrix(1,0,0,1,0,0)"><g id="svga-group-mouth-single" transform="matrix(1,0,0,1,0,0)"><path id="SvgjsPath4268" d="M87.37 125.93s1.12 4.65 4.76 7.15c3.64 2.5 9.31 2.85 13.38 1.21 4.07-1.64 6.77-5.97 7.12-7.11 0 0-20.18-.45-20.32-.49s-4.94-.76-4.94-.76z" fill="#da7c87" stroke-width="none" opacity="1" transform="translate(0 3)" stroke="none"></path><path id="SvgjsPath4269" d="M86.29 125.34s2.21 2.8 6.33 3.78c2.69.64 5.63-.21 6.96-.36s1.97.36 4.15.64 6.33.14 10.06-2.78c0 0-2.04.5-3.38-.43s-2.88-3.21-7.66-3.92-8.23-.14-11.25 1.36c-3.03 1.5-3.73 1.92-5.21 1.71z" fill="#d26d79" stroke-width="none" opacity="1" transform="translate(0 3)" stroke="none"></path><path id="SvgjsPath4270" d="M86.08 125.64c1.36 1.69 3.21 2.75 5.27 3.39 2.54.78 4.71.27 7.28.04 2.94-.27 5.68 1.1 8.66.68 2.34-.33 4.57-1.41 6.54-2.68.56-.37-.01-1.28-.52-.89-2.09 1.6-4.46 2.74-7.15 2.68-2.3-.06-4.4-1.1-6.74-.84-2.02.22-3.9.97-5.96.78-2.8-.26-4.91-1.76-6.77-3.75-.39-.42-.95.17-.61.59z" fill="#cb5f6c" stroke-width="none" opacity="1" transform="translate(0 3)" stroke="none"></path><path id="SvgjsPath4271" d="M89.91 126.96c2.22 2.07 5.07 1.03 7.71.53 3.67-.69 7.27 1.65 10.87.51.21-.07.19-.42-.05-.4-3.01.24-5.45-1.84-8.45-1.66-3.45.22-6.63 3.22-10.02.94-.05-.03-.1.04-.06.08z" fill="#e28c96" stroke-width="none" opacity="1" transform="translate(0 3)" stroke="none"></path><path id="SvgjsPath4272" d="M108.59 130.42c-.95.98-1.89 1.9-3.13 2.5-1.38.67-2.74.71-4.23.85-.35.03-.46.54-.09.64 2.84.76 6.56-1.1 7.87-3.67.13-.26-.2-.55-.42-.32z" fill="#e28c96" stroke-width="none" opacity="1" transform="translate(0 3)" stroke="none"></path><path id="SvgjsPath4273" d="M87.47 125.61c2.67.29 4.92-2.02 7.47-2.57 3.41-.73 6.76-.31 10.12.42.28.06.37-.31.12-.42-2.62-1.11-5.96-1.09-8.73-.75-1.23.15-2.47.4-3.62.87-1.88.77-3.26 2-5.36 2.25-.12.02-.12.19 0 .2z" fill="#e99ca5" stroke-width="none" opacity="1" transform="translate(0 3)" stroke="none"></path></g></g><g id="svga-group-eyes-left-move" transform="matrix(1,0,0,1,0,0)"><g id="svga-group-eyes-left" transform="matrix(1,0,0,1,0,0)"><g id="svga-group-eyesback-left"><path id="SvgjsPath4789" d="M90.9 101.3s-.3-2.5-1-3.8-3.7-4.4-7-5c-4.9-1-9.3 1.7-9.3 1.7s0 2.4 1.5 4.1c1.4 1.7 3.9 2.6 4.9 2.7s4.6.3 6.5 0c1.3-.2 2.8-.2 3.4 0 .5.2 1 .3 1 .3z" fill="#ffffff" stroke-width="none" opacity="1"></path></g><g id="svga-group-eyesiriswrapper-left" transform="matrix(1,0,0,1,0,0)"><g id="svga-group-eyesiriscontrol-left" transform="matrix(1,0,0,1,0,0)"><g id="svga-group-eyesiris-left" transform="matrix(1,0,0,1,0,0)"><path id="SvgjsPath5007" d="M82 91.2c2.9 0 5.2 2.3 5.2 5.2s-2.3 5.2-5.2 5.2-5.2-2.3-5.2-5.2 2.3-5.2 5.2-5.2z" fill="#5f7876" stroke-width="none" opacity="1" stroke="none"></path><path id="SvgjsPath5008" d="M82 101.8c-3 0-5.4-2.4-5.4-5.4S79 91 82 91s5.4 2.4 5.4 5.4-2.4 5.4-5.4 5.4zm0-10.3c-2.7 0-4.9 2.2-4.9 4.9s2.2 4.9 4.9 4.9 4.9-2.2 4.9-4.9-2.2-4.9-4.9-4.9z" fill="#355956" stroke-width="none" opacity="1" stroke="none"></path><path id="SvgjsPath5009" d="M86.9 96.4c-.6 0-1.3-.1-1.9 0 0-.3 0-.5-.1-.8.7-.1 1.5-.3 2.2-.6.2-.1.1-.3-.1-.3-.7.1-1.5.4-2.2.6 0-.1-.1-.2-.1-.3.3-.1.6-.3.8-.4.4-.2.8-.2 1.1-.4.1-.1.1-.2-.1-.2-.6.1-1.4.4-2 .8 0-.1-.1-.1-.1-.2.2-.2.4-.3.7-.5.3-.2.7-.5 1-.8.1-.1 0-.3-.2-.2-.3.3-.7.5-1 .8-.2.2-.4.3-.6.5l-.3-.3c.5-.6.9-1.2 1.2-1.9.1-.1-.1-.2-.1-.1-.5.5-1 1.2-1.3 1.8-.1-.1-.2-.1-.3-.2.2-.7.3-1.5.3-2.2 0-.2-.2-.2-.3 0-.1.5-.2 1.1-.2 1.6 0 .2-.1.3-.1.5-.2-.1-.3-.1-.5-.1 0-.7-.1-1.5-.3-2.2 0-.1-.1 0-.1 0-.1.7-.1 1.4-.1 2.1h-.4c0-.2-.1-.4-.1-.6-.1-.5-.1-.9-.2-1.4 0-.1-.2-.1-.2 0-.1.6 0 1.3.2 2-.1 0-.2 0-.2.1-.2-.7-.4-1.4-.7-2.1 0-.1-.2-.1-.2 0 .1.7.3 1.4.6 2.1 0 0-.1 0-.1.1-.3-.7-.8-1.3-1.3-1.9-.1-.1-.2 0-.1.1.3.6.7 1.3 1.2 1.9-.1.1-.2.1-.2.2-.1-.1-.2-.3-.3-.4-.3-.4-.7-.9-1.1-1.2-.1-.1-.2 0-.2.1.2.4.6.8.9 1.2.1.2.3.3.4.5-.1.1-.2.2-.3.4-.6-.4-1.2-.9-1.8-1.2-.1 0-.1.1-.1.1.5.5 1.1.9 1.7 1.3-.1.2-.2.3-.2.5-.1 0-.2-.1-.3-.1-.6-.2-1.2-.5-1.7-.7-.1-.1-.2.2-.1.2.5.2 1 .5 1.5.7.2.1.3.1.5.2 0 .1 0 .2-.1.3-.2 0-.3-.1-.5-.1-.5-.1-1.1-.2-1.6-.1-.1 0-.1.2 0 .2.6.2 1.4.3 2.1.4v.4c-.3.1-.6.2-.9.4-.4.2-.8.2-1.1.5-.1.1-.1.3.1.3.4 0 .9-.2 1.3-.4.2-.1.5-.2.7-.3 0 .2.1.3.1.4-.1.1-.2.1-.3.2-.5.3-1 .6-1.4 1-.1.1 0 .3.2.2.6-.3 1.1-.6 1.6-.9.1 0 .1-.1.2-.1.1.1.2.3.2.4-.5.4-1 1-1.5 1.5-.1.1 0 .2.1.1.5-.4 1.1-.9 1.6-1.4l.3.3c-.2.2-.3.4-.4.6-.3.4-.6.8-.9 1.3-.1.1.1.2.2.1.3-.4.7-.8 1-1.2.2-.2.3-.4.5-.6.1 0 .1.1.2.1-.1.2-.1.3-.2.4-.2.4-.5.9-.6 1.4 0 .1.2.2.2.1.3-.4.5-.9.8-1.4.1-.1.1-.2.2-.4h.1c-.3.7-.5 1.4-.6 2.1 0 .1.2.1.2 0 .2-.7.5-1.4.7-2.1.1 0 .2 0 .3.1-.2.7-.2 1.5-.3 2.2 0 .2.3.2.3 0 0-.7.2-1.5.2-2.2h.2c-.1.7-.1 1.4 0 2.1 0 .2.3.2.3 0-.1-.7 0-1.4-.1-2.1.2 0 .4-.1.6-.1.1.3.3.7.4 1 .2.3.2.7.6.9.1 0 .1 0 .1-.1 0-.3-.2-.7-.4-1-.2-.3-.3-.7-.5-1 .1 0 .1-.1.2-.1.1.3.3.6.4.8.2.3.3.8.6 1 .1.1.2 0 .2-.1-.1-.4-.4-.7-.6-1.1-.2-.3-.3-.6-.5-.8.1-.1.2-.1.3-.2.3.6.8 1.2 1.3 1.7.2.2.4-.1.2-.2-.5-.5-.9-1-1.3-1.6.2-.2.4-.4.5-.6.6.4 1.1.8 1.7 1.2.1.1.3-.1.2-.2-.5-.4-1.2-.8-1.8-1.2 0-.1.1-.1.1-.2.6.3 1.3.7 1.9.9.1.1.2-.2.1-.2-.6-.3-1.3-.6-1.9-.8.1-.2.2-.5.2-.8.7.1 1.3.1 2 .1-.2.3-.2-.2-.5-.2z" fill="#355956" stroke-width="none" opacity="1" stroke="none"></path><path id="SvgjsPath5010" d="M82 93.6c1.5 0 2.8 1.3 2.8 2.8s-1.3 2.8-2.8 2.8-2.8-1.3-2.8-2.8 1.3-2.8 2.8-2.8z" fill="#000000" stroke-width="none" opacity="1"></path><path id="SvgjsPath5011" d="M80.4 94c.6 0 1.1.5 1.1 1.1s-.5 1.1-1.1 1.1-1.1-.5-1.1-1.1.5-1.1 1.1-1.1zm3.4 4c.3 0 .6.3.6.6s-.3.6-.6.6-.6-.3-.6-.6.3-.6.6-.6z" fill="#ffffff" stroke-width="none" opacity="1"></path></g></g></g><g id="svga-group-eyesfront-left"><path id="SvgjsPath4797" d="M70.73 98.03c0 6.9 4.93 12.5 11.02 12.5s11.02-5.6 11.02-12.5-4.93-12.5-11.02-12.5-11.02 5.59-11.02 12.5zm2.88-3.78s4.42-2.71 9.34-1.75c3.29.64 6.2 3.74 6.95 5.03.75 1.28 1.03 3.82 1.03 3.82s-.53-.14-1.11-.32c-.57-.18-2.05-.19-3.39.04-1.89.32-5.46.18-6.45.04-1-.14-3.49-1.07-4.92-2.75-1.41-1.69-1.45-4.11-1.45-4.11z" fill="#f3d4cf" stroke-width="none" opacity="1"></path><path id="SvgjsPath4798" d="M73.27 94.64c-.1.42-.12.84-.06 1.25-.57-.03-1.21.05-1.59.44-.14.14.01.33.18.3.3-.05.58-.2.88-.27.21-.05.42-.06.63-.05.06.21.13.42.22.63-.18.06-.35.14-.5.21-.38.17-.75.42-.99.76-.11.15.09.28.22.22.35-.16.68-.38 1.03-.55.15-.07.32-.12.49-.18.16.28.35.54.56.8-.41.24-.78.58-.9 1.03-.03.1.09.21.19.15.36-.24.65-.57.96-.88 1.11 1.22 2.67 2.16 3.92 2.57 1.88.62 3.93.72 5.89.62 1.85-.09 4.72-1.14 6.43-.21.07.04.13.02.17-.02l.03-.03c.01-.02.02-.04.02-.06 0-.01.01-.01.01-.03-.1-4.06-2.64-7.49-6.4-8.97-2.08-.82-4.37-1.02-6.58-.69-2.59.39-4.87 1.66-7.54 1.44-.23-.02-.34.3-.18.44.9.88 1.89 1.13 2.91 1.08zm.67-.07c1.99-.32 4.11-1.54 6.09-1.68 5.13-.36 10.05 3 10.7 8.24-2.39-.82-5.13-.1-7.59-.15-2.01-.04-4.14-.32-5.91-1.34-2.21-1.28-2.61-2.93-3.29-5.07z" fill="#000000" stroke-width="none" opacity="1"></path></g></g></g><g id="svga-group-eyes-right-move" transform="matrix(1,0,0,1,0,0)"><g id="svga-group-eyes-right" transform="matrix(1,0,0,1,0,0)"><g id="svga-group-eyesback-right"><path id="SvgjsPath4790" d="M109.1 101.3s.3-2.5 1-3.8 3.7-4.4 7-5c4.9-1 9.3 1.7 9.3 1.7s0 2.4-1.5 4.1c-1.4 1.7-3.9 2.6-4.9 2.7s-4.6.3-6.5 0c-1.3-.2-2.8-.2-3.4 0-.5.2-1 .3-1 .3z" fill="#ffffff" stroke-width="none" opacity="1"></path></g><g id="svga-group-eyesiriswrapper-right" transform="matrix(1,0,0,1,0,0)"><g id="svga-group-eyesiriscontrol-right" transform="matrix(1,0,0,1,0,0)"><g id="svga-group-eyesiris-right" transform="matrix(1,0,0,1,0,0)"><path id="SvgjsPath5012" d="M118 91.2c2.9 0 5.2 2.3 5.2 5.2s-2.3 5.2-5.2 5.2-5.2-2.3-5.2-5.2 2.3-5.2 5.2-5.2z" fill="#5f7876" stroke-width="none" opacity="1" stroke="none"></path><path id="SvgjsPath5013" d="M118 101.8c-3 0-5.4-2.4-5.4-5.4S115 91 118 91s5.4 2.4 5.4 5.4-2.4 5.4-5.4 5.4zm0-10.3c-2.7 0-4.9 2.2-4.9 4.9s2.2 4.9 4.9 4.9 4.9-2.2 4.9-4.9-2.2-4.9-4.9-4.9z" fill="#355956" stroke-width="none" opacity="1" stroke="none"></path><path id="SvgjsPath5014" d="M122.9 96.4c-.6 0-1.3-.1-1.9 0 0-.3 0-.5-.1-.8.7-.1 1.5-.3 2.2-.6.2-.1.1-.3-.1-.3-.7.1-1.5.4-2.2.6 0-.1-.1-.2-.1-.3.3-.1.6-.3.8-.4.4-.2.8-.2 1.1-.4.1-.1.1-.2-.1-.2-.6.1-1.4.4-2 .8 0-.1-.1-.1-.1-.2.2-.2.4-.3.7-.5.3-.2.7-.5 1-.8.1-.1 0-.3-.2-.2-.3.3-.7.5-1 .8-.2.2-.4.3-.6.5l-.3-.3c.5-.6.9-1.2 1.2-1.9.1-.1-.1-.2-.1-.1-.5.5-1 1.2-1.3 1.8-.1-.1-.2-.1-.3-.2.2-.7.3-1.5.3-2.2 0-.2-.2-.2-.3 0-.1.5-.2 1.1-.2 1.6 0 .2-.1.3-.1.5-.2-.1-.3-.1-.5-.1 0-.7-.1-1.5-.3-2.2 0-.1-.1 0-.1 0-.1.7-.1 1.4-.1 2.1h-.4c0-.2-.1-.4-.1-.6-.1-.5-.1-.9-.2-1.4 0-.1-.2-.1-.2 0-.1.6 0 1.3.2 2-.1 0-.2 0-.2.1-.2-.7-.4-1.4-.7-2.1 0-.1-.2-.1-.2 0 .1.7.3 1.4.6 2.1 0 0-.1 0-.1.1-.3-.7-.8-1.3-1.3-1.9-.1-.1-.2 0-.1.1.3.6.7 1.3 1.2 1.9-.1.1-.2.1-.2.2-.1-.1-.2-.3-.3-.4-.3-.4-.7-.9-1.1-1.2-.1-.1-.2 0-.2.1.2.4.6.8.9 1.2.1.2.3.3.4.5-.1.1-.2.2-.3.4-.6-.4-1.2-.9-1.8-1.2-.1 0-.1.1-.1.1.5.5 1.1.9 1.7 1.3-.1.2-.2.3-.2.5-.1 0-.2-.1-.3-.1-.6-.2-1.2-.5-1.7-.7-.1-.1-.2.2-.1.2.5.2 1 .5 1.5.7.2.1.3.1.5.2 0 .1 0 .2-.1.3-.2 0-.3-.1-.5-.1-.5-.1-1.1-.2-1.6-.1-.1 0-.1.2 0 .2.6.2 1.4.3 2.1.4v.4c-.3.1-.6.2-.9.4-.4.2-.8.2-1.1.5-.1.1-.1.3.1.3.4 0 .9-.2 1.3-.4.2-.1.5-.2.7-.3 0 .2.1.3.1.4-.1.1-.2.1-.3.2-.5.3-1 .6-1.4 1-.1.1 0 .3.2.2.6-.3 1.1-.6 1.6-.9.1 0 .1-.1.2-.1.1.1.2.3.2.4-.5.4-1 1-1.5 1.5-.1.1 0 .2.1.1.5-.4 1.1-.9 1.6-1.4l.3.3c-.2.2-.3.4-.4.6-.3.4-.6.8-.9 1.3-.1.1.1.2.2.1.3-.4.7-.8 1-1.2.2-.2.3-.4.5-.6.1 0 .1.1.2.1-.1.2-.1.3-.2.4-.2.4-.5.9-.6 1.4 0 .1.2.2.2.1.3-.4.5-.9.8-1.4.1-.1.1-.2.2-.4h.1c-.3.7-.5 1.4-.6 2.1 0 .1.2.1.2 0 .2-.7.5-1.4.7-2.1.1 0 .2 0 .3.1-.2.7-.2 1.5-.3 2.2 0 .2.3.2.3 0 0-.7.2-1.5.2-2.2h.2c-.1.7-.1 1.4 0 2.1 0 .2.3.2.3 0-.1-.7 0-1.4-.1-2.1.2 0 .4-.1.6-.1.1.3.3.7.4 1 .2.3.2.7.6.9.1 0 .1 0 .1-.1 0-.3-.2-.7-.4-1-.2-.3-.3-.7-.5-1 .1 0 .1-.1.2-.1.1.3.3.6.4.8.2.3.3.8.6 1 .1.1.2 0 .2-.1-.1-.4-.4-.7-.6-1.1-.2-.3-.3-.6-.5-.8.1-.1.2-.1.3-.2.3.6.8 1.2 1.3 1.7.2.2.4-.1.2-.2-.5-.5-.9-1-1.3-1.6.2-.2.4-.4.5-.6.6.4 1.1.8 1.7 1.2.1.1.3-.1.2-.2-.5-.4-1.2-.8-1.8-1.2 0-.1.1-.1.1-.2.6.3 1.3.7 1.9.9.1.1.2-.2.1-.2-.6-.3-1.3-.6-1.9-.8.1-.2.2-.5.2-.8.7.1 1.3.1 2 .1-.2.3-.2-.2-.5-.2z" fill="#355956" stroke-width="none" opacity="1" stroke="none"></path><path id="SvgjsPath5015" d="M118 93.6c1.5 0 2.8 1.3 2.8 2.8s-1.3 2.8-2.8 2.8-2.8-1.3-2.8-2.8 1.3-2.8 2.8-2.8z" fill="#000000" stroke-width="none" opacity="1"></path><path id="SvgjsPath5016" d="M116.5 94c.6 0 1.1.5 1.1 1.1s-.5 1.1-1.1 1.1-1.1-.5-1.1-1.1.5-1.1 1.1-1.1zm3.4 4c.3 0 .6.3.6.6s-.3.6-.6.6-.6-.3-.6-.6.3-.6.6-.6z" fill="#ffffff" stroke-width="none" opacity="1"></path></g></g></g><g id="svga-group-eyesfront-right"><path id="SvgjsPath4799" d="M118.26 85.53c-6.08 0-11.02 5.6-11.02 12.5s4.93 12.5 11.02 12.5 11.02-5.6 11.02-12.5-4.94-12.5-11.02-12.5zm6.67 12.82c-1.43 1.68-3.92 2.6-4.92 2.75-1 .14-4.56.29-6.45-.04-1.34-.23-2.82-.21-3.39-.04-.57.18-1.11.32-1.11.32s.29-2.53 1.03-3.82c.75-1.28 3.66-4.38 6.95-5.03 4.92-.96 9.34 1.75 9.34 1.75s-.03 2.43-1.45 4.11z" fill="#f3d4cf" stroke-width="none" opacity="1"></path><path id="SvgjsPath4802" d="M129.64 93.58c.15-.15.04-.46-.18-.44-2.68.22-4.96-1.05-7.54-1.44-2.21-.33-4.49-.13-6.58.69-3.76 1.48-6.31 4.91-6.4 8.97 0 .01.01.02.01.03 0 .02.01.04.02.06l.03.03c.04.04.1.06.17.02 1.71-.93 4.58.11 6.43.21 1.96.1 4.02-.01 5.89-.62 1.25-.41 2.81-1.35 3.92-2.57.31.31.6.64.96.88.1.06.22-.04.19-.15-.12-.45-.5-.79-.9-1.03.21-.26.4-.52.56-.8.17.06.34.11.49.18.35.17.68.39 1.03.55.13.06.33-.07.22-.22-.25-.34-.61-.59-.99-.76-.15-.07-.32-.15-.5-.21.09-.21.17-.42.22-.63.21 0 .42.01.63.05.3.07.58.21.88.27.17.03.31-.16.18-.3-.38-.39-1.02-.48-1.59-.44.06-.41.04-.83-.06-1.25 1.02.03 2.01-.22 2.91-1.08zm-6.87 6.06c-1.77 1.03-3.9 1.3-5.91 1.34-2.46.05-5.21-.67-7.59.15.65-5.24 5.56-8.6 10.7-8.24 1.98.14 4.1 1.36 6.09 1.68-.68 2.14-1.08 3.79-3.29 5.07z" fill="#000000" stroke-width="none" opacity="1"></path></g></g></g><g id="svga-group-facehighlight-single"></g><g id="svga-group-eyebrows-left-move" transform="matrix(1,0,0,1,0,0)"><g id="svga-group-eyebrows-left-rotate" transform="matrix(1,0,0,1,0,0)"><g id="svga-group-eyebrows-left" transform="matrix(1,0,0,1,0,0)"><path id="SvgjsPath5292" d="M68.8 86s.1 0 0 0c.1-.1.1-.1.1-.2.3-.6.9-1 1.4-1.3.6-.4 1.3-.9 1.9-1.3h.1c1.5-1.1 4-1.3 6-.8 1.9.2 3.8.8 5 1.3.1 0 .2.1.4.1 1.6.3 3.3.6 4.8 1.2 1.5.3 3 .5 4.4 1h.1c.1-.1.4 0 .4.2.1.2.1.4 0 .7.2 0 .3.1.3.3-.1.5-.3.9-.6 1.3v.1c-.3.8-.9 1.1-1.8 1-.1 0-.2 0-.4-.1-.1.1-.2.1-.3.1-1.6-.1-3.2-.8-4.6-1.4-.9-.4-1.9-.8-2.8-1.3-1.4-.2-2.8-.6-4.2-.9-1.3-.3-2.8-.3-4-.8-.4.1-.9.1-1.3.2-.3.1-.6.2-1 .2-1 .3-2.2.8-3.2.9h-.1c-.1 0-.1.1-.2.1-.2.2-.4.4-.7.5-.1 0-.3-.1-.3-.2 0-.5.3-.7.6-.9z" fill="#6b4e40" stroke-width="none" opacity="1" stroke="none"></path><path id="SvgjsPath5293" d="M89.9 85.4c1.3.8 1.5 2.8 1.3 4.2 0 .3-.5.3-.6 0-.2-.7-.2-1.4-.3-2.1-.2-.6-.4-1.1-.7-1.7-.1-.3.1-.6.3-.4zm-3.2-.9c2.1.4 3.4 2.9 3.6 4.8 0 .2-.3.2-.3.1-.2-1-.6-1.9-1.2-2.7-.6-.8-1.4-1.3-2.2-2-.1-.1 0-.3.1-.2zM81 83.1c.9.2 1.9 1 2.6 1.7.7.7 1.3 1.5 1.5 2.4 0 .2-.2.3-.3.2-.5-.8-.9-1.6-1.7-2.2-.7-.6-1.6-1-2.2-1.8-.1-.2-.1-.3.1-.3zM76.3 82c2.3 0 4.7 2.1 5.4 4.2.1.2-.2.3-.3.1-.6-.9-1.2-1.8-2.1-2.5-.9-.7-1.9-1-3-1.4-.3-.1-.3-.4 0-.4zm-5.6 2.4c2.1-2.7 6.2-1.8 7.9.8.1.2-.2.4-.3.2-1-.9-2.1-1.9-3.5-2-1.5-.2-2.7.8-3.9 1.3-.3.1-.3-.2-.2-.3z" fill="#7a6155" stroke-width="none" opacity="1" stroke="none"></path><path id="SvgjsPath5294" d="M92.1 90.3c1.6-.4 2-2.2 2-3.7 0-.3-.4-.3-.5-.1-.2.6-.4 1.3-.7 1.8-.3.5-.7.8-1.1 1 .4-1.2.2-2.6-.6-3.7.6.1 1.1.3 1.7.4.2 0 .3-.2.1-.3-2.7-1-5.6-1.6-8.3-2.4-2.4-.7-4.9-1.4-7.3-1.7-4.6-.6-7.6 2.4-10.3 5.7-.1.1-.2.2-.3.2-.4.3 0 .9.4.6 2.5-1.5 5-2.4 7.9-2.4 3.1.1 6.2 1.1 9.2 2.1 1.6.6 3.1 1.2 4.6 1.8 1 .6 2.1 1 3.2.7zm-20-6.8c1-.7 2.1-1 3.1-1.1.8.4 1.6.8 2.3 1.4.5.5.9 1.1 1.3 1.6-.1 0-.2-.1-.4-.1-3.4-.7-6.6-.4-9.5 1 1-1 2-2 3.2-2.8zm19.3 6c-.5 0-1.1-.1-1.7-.3-1.2-.4-2.4-1-3.6-1.5-.2-.1-.4-.1-.6-.2 0-.9-.3-1.8-.9-2.4-.1-.1-.3 0-.2.2.3.7.7 1.4.9 2.1-.8-.3-1.5-.6-2.3-.8-.7-1.5-2.1-3.1-3.6-3.8-.2-.1-.3.2-.2.3.6.6 1.3 1 1.9 1.7.5.5.9 1.1 1.3 1.7-1-.3-1.9-.6-2.9-.8-.2-.8-.9-1.6-1.5-2.1-.4-.4-1-.8-1.5-1.1.9 0 1.9.1 2.8.3 3.8.8 7.6 1.9 11.4 2.8.8 1.2 1 2.5.7 3.9z" fill="#5c3d2e" stroke-width="none" opacity="1" stroke="none"></path></g></g></g><g id="svga-group-eyebrows-right-move" transform="matrix(1,0,0,1,0,0)"><g id="svga-group-eyebrows-right-rotate" transform="matrix(1,0,0,1,0,0)"><g id="svga-group-eyebrows-right" transform="matrix(1,0,0,1,0,0)"><path id="SvgjsPath5295" d="M131.2 86s-.1 0 0 0c-.1-.1-.1-.1-.1-.2-.3-.6-.9-1-1.4-1.3-.6-.4-1.3-.9-1.9-1.3h-.1c-1.5-1.1-4-1.3-6-.8-1.9.2-3.8.8-5 1.3-.1 0-.2.1-.4.1-1.6.3-3.3.6-4.8 1.2-1.5.3-3 .5-4.4 1h-.1c-.1-.1-.4 0-.4.2-.1.2-.1.4 0 .7-.2 0-.3.1-.3.3.1.5.3.9.6 1.3v.1c.3.8.9 1.1 1.8 1 .1 0 .2 0 .4-.1.1.1.2.1.3.1 1.6-.1 3.2-.8 4.6-1.4.9-.4 1.9-.8 2.8-1.3 1.4-.2 2.8-.6 4.2-.9 1.3-.3 2.8-.3 4-.8.4.1.9.1 1.3.2.3.1.6.2 1 .2 1 .3 2.2.8 3.2.9h.1c.1 0 .1.1.2.1.2.2.4.4.7.5.1 0 .3-.1.3-.2 0-.5-.3-.7-.6-.9z" fill="#6b4e40" stroke-width="none" opacity="1" stroke="none"></path><path id="SvgjsPath5296" d="M110.1 85.4c-1.3.8-1.5 2.8-1.3 4.2 0 .3.5.3.6 0 .2-.7.2-1.4.3-2.1.2-.6.4-1.1.7-1.7.1-.3-.1-.6-.3-.4zm3.2-.9c-2.1.4-3.4 2.9-3.6 4.8 0 .2.3.2.3.1.2-1 .6-1.9 1.2-2.7.6-.8 1.4-1.3 2.2-2 .1-.1 0-.3-.1-.2zm5.7-1.4c-.9.2-1.9 1-2.6 1.7-.7.7-1.3 1.5-1.5 2.4 0 .2.2.3.3.2.5-.8.9-1.6 1.7-2.2.7-.6 1.6-1 2.2-1.8.1-.2.1-.3-.1-.3zm4.7-1.1c-2.3 0-4.7 2.1-5.4 4.2-.1.2.2.3.3.1.6-.9 1.2-1.8 2.1-2.5.9-.7 1.9-1 3-1.4.3-.1.3-.4 0-.4zm5.6 2.4c-2.1-2.7-6.2-1.8-7.9.8-.1.2.2.4.3.2 1-.9 2.1-1.9 3.5-2 1.5-.2 2.7.8 4 1.3.2.1.2-.2.1-.3z" fill="#7a6155" stroke-width="none" opacity="1" stroke="none"></path><path id="SvgjsPath5297" d="M111.1 89.8c1.5-.6 3.1-1.2 4.6-1.8 2.9-1 6.1-2.1 9.2-2.1 2.9-.1 5.5.9 7.9 2.4.4.2.8-.4.4-.6-.1-.1-.2-.2-.4-.2-2.7-3.3-5.7-6.2-10.3-5.7-2.5.3-4.9 1.1-7.3 1.7-2.8.8-5.6 1.4-8.3 2.4-.2.1-.1.3.1.3.6-.1 1.1-.2 1.7-.4-.8 1-1 2.5-.6 3.7-.4-.1-.8-.4-1.1-1-.3-.6-.4-1.2-.7-1.8-.1-.2-.5-.2-.5.1.1 1.4.5 3.2 2 3.7 1.2.1 2.3-.3 3.3-.7zm19.9-3.5c-3-1.4-6.2-1.7-9.5-1-.1 0-.2.1-.4.1.4-.5.8-1.1 1.3-1.6.7-.6 1.5-.9 2.3-1.4 1.1.1 2.1.5 3.1 1.1 1.3.8 2.3 1.8 3.2 2.8zm-21.6-.7c3.8-.9 7.6-2 11.4-2.8 1-.2 1.9-.3 2.8-.3-.6.3-1.1.7-1.5 1.1-.6.5-1.3 1.3-1.5 2.1-1 .2-2 .5-2.9.8.4-.6.8-1.2 1.3-1.7.6-.6 1.3-1.1 1.9-1.7.1-.1 0-.3-.2-.3-1.5.6-2.9 2.2-3.6 3.8-.8.2-1.6.5-2.3.8.2-.7.5-1.4.9-2.1.1-.2-.1-.3-.2-.2-.6.6-.9 1.6-.9 2.4-.2.1-.4.1-.6.2-1.2.5-2.4 1.1-3.6 1.5-.6.2-1.2.4-1.7.3-.4-1.4-.2-2.7.7-3.9z" fill="#5c3d2e" stroke-width="none" opacity="1" stroke="none"></path></g></g></g><g id="svga-group-nose-single-move" transform="matrix(1,0,0,1,0,0)"><g id="svga-group-nose-single" transform="matrix(1,0,0,1,0,0)"><path id="SvgjsPath3937" d="M104.93 107.57c-.14-.18-.45.05-.32.25.84 1.29 1.76 2.56 2.54 3.89.53.9 1.07 2.03.7 3.12-.61 1.79-2.18 1.68-3.45 1 .48-.61.75-1.33.69-2.12-.02-.19-.29-.37-.44-.18-1.26 1.59-2.06 3.25-4.41 3.34-2.48.1-4.08-1.91-4.73-4.07-.06-.19-.32-.14-.33.04-.07.99.25 1.95.79 2.76-.36.07-.73.14-1.09.16-1.15.07-1.34-.02-2.11-.98-.8-1.01-.81-1.27-.36-2.39.21-.53.52-.98.82-1.45.97-1.52 1.84-3.06 2.48-4.75 1.29-3.37 1.85-7.09 1.22-10.66-.03-.15-.26-.11-.27.04-.01 2.89-.19 5.74-1.04 8.52-.88 2.88-2.54 5.04-3.92 7.64-.72 1.35-1.02 3.12.21 4.28 1.22 1.15 3.1.78 4.52.24.85.92 2.02 1.56 3.26 1.67 1.4.12 3.23-.55 4.36-1.7 1.31 1.45 3.82.78 4.47-1.08 1.01-2.82-2.06-5.64-3.59-7.57z" fill="#c5796d" stroke-width="none" opacity="1" transform="translate(0 2)" stroke="none"></path><path id="SvgjsPath3938" d="M102 110.13c-.8-.75-2.07-.97-2.97-.27-.33.25-.52.57-.61.9-.16.05-.3.14-.44.27-.68.67-.39 1.71.19 2.34.5.53 1.31.78 2.02.75.88-.05 1.67-.46 2.16-1.2.57-.86.4-2.09-.35-2.79z" fill="#fbe5e2" stroke-width="none" opacity="1" transform="translate(0 2)" stroke="none"></path></g></g><g id="svga-group-hair-front" transform="matrix(1,0,0,1,0,0)"><path id="SvgjsPath5767" d="M143.1 79.3c-.9 7.7-2.8 15-4.8 18.6 0 0-.3-14.3-3.7-21.1S121.2 62.2 120 56.5c0 0 1.5 3.3 3.8 4.7s10.3 7.6 12.2 9.7 5 7.3 6.3 8c.1.1.5.2.8.4zm-76.2 56.4c0 .6-.2 2.2-.5 4.5-.7-6.6-2.1-13.9-2.1-13.9s-30.2 44.5-26.2 59.2c4 14.7 12.1 24.9 12.9 25.7.8.8 4 1.9 5.4 4.5.5 1 10.5-8.8 5.6-20.6-4.8-11.8-5.9-19.8-1.9-26 .7-1.1 1.3-2.3 1.9-3.5-.8 4.3-1.5 7.7-1.7 8.7-.9 3.5-.9 8.5 1.5 14s6.1 5.8 6.1 5.8c-1.7-2.7-1.8-7.3-.2-12.1s4.2-9.5 5.6-14.5c1.5-5.2 2.2-11.4-2.7-21.7-2.7-6.1-3.7-10.1-3.7-10.1z" fill="#ddcfc1" stroke-width="none" opacity="1" stroke="none"></path><path id="SvgjsPath5768" d="M120 56.5s-18.2 6.8-32.8 1.7-24 15.1-22.8 27.1 9.4 27.7 4.6 47.1c-4.8 19.4-18.8 34.2-22.8 42.8s-4 17.4 0 23.7 6 10.8 7.1 17.4c0 0-1.5-3.6-7.4-8-9.3-6.9-13.1-15.1-12.5-27.9s6.2-22.8 11.1-33.1c4.8-10.3 7.3-23.3 3.9-31.9-3.4-8.6-7.3-20.5-5.9-41.7 1.4-21.1 13.1-32.4 27.7-41s35.7-7 49.1 1.3 11.4 15.7 11.4 15.7 4-2 10 7.1 2 33.4-2.3 41.1c0 0-.3-14.3-3.7-21.1S121.2 62.2 120 56.5z" fill="#e5dcd3" stroke-width="none" opacity="1" stroke="none"></path><path id="SvgjsPath5769" d="M127.6 50.2c-2.3 1.5-4.7 1.5-6.1.8-4.1-1.8-7.4-8-10.8-11.7-5.7-6.2-7.2-9.4-20.3-10.1-9.3-.5-16.7 1.9-21 3.8-14.2 8.5-25.5 19.8-26.9 40.6-1.4 21.1 2.4 33.1 5.9 41.7s.9 21.6-3.9 31.9c-4.8 10.3-10.5 20.3-11.1 33.1s3.3 21 12.5 27.9c5.9 4.4 7.4 8 7.4 8-1.6-4.5-4-6.3-8.7-10.6-4.8-4.3-9.4-16.4-8.4-25.6s9.7-25 13.8-31.4c4.1-6.4 7.4-17.4 8.8-23.3 1.4-5.9.2-10.8-3.9-20.9s-6.3-36.5-5.6-41c1.1-8.3 3.1-14 9.4-20.6 9.4-9.8 21.6-11.3 28.9-11.4 11.8-.1 20 7.7 21.5 9.9s10.5 11.9 12.8 12.3c2.3.4 8-3.4 8-3.4l.7-.6s.3-1 0-2.6c-.5.9-1.5 2.2-3 3.2zM102.2 60c.3 0 .7 0 1-.1.2 0 .5 0 .8-.1.4 0 .9-.1 1.3-.1.2 0 .5-.1.8-.1.3 0 .7-.1 1-.1.3 0 .6-.1.9-.1.3 0 .6-.1.9-.1.2 0 .4-.1.6-.1.4-.1.8-.2 1.2-.2.2 0 .4-.1.6-.1.4-.1.8-.2 1.1-.2.2 0 .3-.1.4-.1.3-.1.6-.2.9-.2.1 0 .2 0 .3-.1.4-.1.8-.2 1.1-.3.1 0 .2 0 .3-.1.4-.1.7-.2 1.1-.3 2.2-.6 3.5-1.1 3.5-1.1s-5 .6-10.9-5.5c-2.3-3.7-6.1-10.5-12-12.8-6.8-2.7-29.5-3.9-37.2 12.5s-2.7 30.5.6 37.4c3.3 6.9 8.5 20.1 8.3 28.7-.2 8.7-2.3 21-4.6 26.4-2.3 5.4-17.6 24.4-20.8 33.3-3.3 9.3-4.4 15.6 3.5 28.3 3 4.9 5 6.3 5.8 8.1-1.2-5-3.1-9-6.5-14.2-4-6.3-4-15.1 0-23.7s18-23.4 22.8-42.8-3.4-35.1-4.6-47.1S72.7 52.9 87.2 58c1.9.7 3.9 1.1 5.8 1.4h.1c.2 0 .4.1.7.1.4 0 .8.1 1.2.1.3 0 .6 0 .8.1.4 0 .8.1 1.3.1h4.1c.3.3.7.3 1 .2z" fill="#ddcfc1" stroke-width="none" opacity="1" stroke="none"></path><path id="SvgjsPath5770" d="M63.3 148.6s-2.6 6.6-9.3 14.7c-8.9 10.7-10.7 17.4-7.4 25.8 3.3 8.4 7.8 12.8 9.3 16.5s1.1 7.6 1.1 7.6 1.9-4.1 1.1-7.2c-.7-3.1-7.4-13.9-8.4-20s.1-12.9 4.2-18.7c3.5-4.9 7.6-11.6 9.4-18.7zm1.9 1.5s-2.5 11.6-6 17.4c-3.5 5.8-4.6 13-2 19.1 2.6 6.1 7.6 14.1 7.2 19.4 0 0 3.4-6.4.2-13s-4.3-16.4-1.7-23.1c2.6-6.6 2.9-15.2 2.3-19.8z" fill="#e5dcd3" stroke-width="none" opacity="1" stroke="none"></path><path id="SvgjsPath5771" d="M93.1 59.7c.3 0 .5.1.7.1.4 0 .8.1 1.2.1.3 0 .6 0 .8.1.4 0 .8.1 1.3.1h1.5c-2.4-1-5.2-2.6-7.6-5.4-4.8-5.9-8.5-8.6-16.2-7.8S59 58.1 59.5 69c.5 10.8 4 17.7 6.2 23.6-.6-2.6-1.1-5-1.3-7.3-1.1-12 8.3-32.2 22.8-27.1 2 .7 3.9 1.1 5.9 1.5z" fill="#d6c3b0" stroke-width="none" opacity="1" stroke="none"></path></g><g id="svga-group-glasses-single-move" transform="matrix(1,0,0,1,0,0)"><g id="svga-group-glasses-single" transform="matrix(1,0,0,1,0,0)"></g></g></g></g></g><rect id="svga-credit-rect" width="200" height="15" x="0" y="185" fill="#ecf0f1" opacity="0.5" style="display: none;"></rect><text id="svga-credit-text" font-family="Avenir Next, Roboto, Helvetica, Arial, sans-serif" font-size="10px" text-anchor="start" font-weight="400" size="10px" anchor="start" weight="400" fill="#333333" x="33.402061462402344" y="182.71133995056152" style="display: none;"><tspan id="SvgjsTspan2896" dy="13" x="33.402061462402344">Created on AvatarMaker.com</tspan></text></g></svg>